# xmcd
#
# Track frame offsets: 
#        151
#        25542
#        38423
#        54571
#        70781
#        89407
#        104330
#        119316
#        136180
#        150750
#        166423
#
# Disc length: 3602 seconds
#
# Revision: 1
# Processed by: cddbd v1.5.2PL0 Copyright (c) Steve Scherf et al.
# Submitted via: ExactAudioCopyFreeDBPlugin 1.0
#
DISCID=7a0e100b
DTITLE=Canned Heat - Human Condition Revisited
DYEAR=2006
DGENRE=Blues
TTITLE0=Human Condition
TTITLE1=Strut My Stuff
TTITLE2=Hot Money
TTITLE3=House Of The Blue Light
TTITLE4=Just Got To Be There
TTITLE5=You Just Got To Rock
TTITLE6=She´s Looking Good
TTITLE7=Open Up Your Back Door
TTITLE8=Wrapped Up
TTITLE9=Kings Of The Boogie
TTITLE10=Refried Hockey Boogie (Instrumental)
EXTD=
EXTT0=
EXTT1=
EXTT2=
EXTT3=
EXTT4=
EXTT5=
EXTT6=
EXTT7=
EXTT8=
EXTT9=
EXTT10=
PLAYORDER=
